<svg width="138" height="212" viewBox="0 0 138 212" fill="none" xmlns="http://www.w3.org/2000/svg">
<path d="M127.302 0.776978V27.8806H126.124C123.571 27.095 121.116 26.604 118.759 26.4076C116.402 26.0148 113.456 25.8184 109.921 25.8184C106.385 25.8184 101.868 25.8184 96.3688 25.8184H33.6181L39.5102 20.2209L26.253 97.4072L23.6015 95.6396C30.2792 89.1583 37.7425 84.3464 45.9914 81.204C54.2404 77.8651 62.7839 76.1957 71.622 76.1957C83.0134 76.1957 93.8156 78.8471 104.029 84.15C114.241 89.2565 122.392 96.6216 128.481 106.245C134.766 115.869 137.908 126.966 137.908 139.536C137.908 152.498 134.667 164.577 128.186 175.772C121.705 186.771 112.768 195.51 101.377 201.992C89.9857 208.473 77.4159 211.714 63.6677 211.714C49.9195 211.714 37.6443 208.964 26.8422 203.465C16.04 197.769 7.39829 190.208 0.916992 180.78L8.2821 144.544L13.2904 145.133C13.2904 154.953 15.2544 164.282 19.1825 173.121C23.3069 181.959 29.1008 189.127 36.5641 194.627C44.2238 200.126 53.2584 202.876 63.6677 202.876C74.0771 202.876 82.9152 200.224 90.1821 194.921C97.449 189.422 102.948 182.253 106.68 173.415C110.412 164.381 112.277 154.462 112.277 143.66C112.277 131.287 110.313 120.681 106.385 111.843C102.654 103.005 97.449 96.327 90.7713 91.8097C84.0936 87.2924 76.5321 85.0338 68.0868 85.0338C59.8379 85.0338 51.5889 86.9978 43.34 90.9259C35.0911 94.854 27.726 100.451 21.2447 107.718L15.9418 105.656L33.9127 0.776978H127.302Z" fill="#FFEEF2"/>
</svg>
