<svg width="29" height="21" viewBox="0 0 29 21" fill="none" xmlns="http://www.w3.org/2000/svg">
<path d="M28.1478 0.0234375C27.6438 2.15144 27.1118 4.44744 26.5518 6.91144C25.9918 9.37544 25.4878 11.7834 25.0398 14.1354C24.5918 16.4874 24.2278 18.6434 23.9478 20.6034H15.9678L15.3798 19.6794C15.8838 17.7194 16.5278 15.6194 17.3118 13.3794C18.0958 11.0834 18.9638 8.78744 19.9158 6.49144C20.8678 4.19544 21.7918 2.03944 22.6878 0.0234375H28.1478ZM12.6078 0.0234375C12.1038 2.15144 11.5718 4.44744 11.0118 6.91144C10.4518 9.37544 9.94781 11.7834 9.49981 14.1354C9.05181 16.4874 8.68781 18.6434 8.40781 20.6034H0.511813L0.0078125 19.6794C0.511813 17.7194 1.15581 15.6194 1.93981 13.3794C2.72381 11.0834 3.56381 8.78744 4.45981 6.49144C5.41181 4.19544 6.33581 2.03944 7.23181 0.0234375H12.6078Z" fill="#080808"/>
</svg>
