<svg width="335" height="95" viewBox="0 0 335 95" fill="none" xmlns="http://www.w3.org/2000/svg">
<path d="M219.926 45.2353C221.503 44.7307 224.216 42.3335 228.758 35.3944L237.653 21.8947C229.073 21.39 224.216 17.8574 224.216 11.9907C224.216 5.68243 230.209 1.89746 240.744 1.89746H255.442V2.14979C255.127 3.78995 255.127 4.54694 255.127 8.52115V39.4317C255.127 43.4059 255.127 44.1629 255.442 45.8031V46.0554H249.323V45.8031C249.765 44.1629 249.765 43.4059 249.765 39.4317V3.78995H242.573C234.309 3.78995 229.704 6.81792 229.704 12.3061C229.704 17.542 234.309 20.4438 242.51 20.4438H243.835L244.276 21.2639L232.921 38.2962C229.83 42.9643 226.045 47.3171 219.989 46.1816L219.926 45.2353Z" fill="#080808"/>
<path d="M187.955 1.89746H194.074V2.14979C193.632 3.78995 193.632 4.54694 193.632 8.52115V44.1629H199.31C207.195 44.1629 212.178 39.3055 212.178 31.6094C212.178 23.661 206.943 19.1821 199.183 19.1821C198.679 19.1821 198.237 19.1821 197.733 19.2452V17.3527C198.994 17.2266 200.193 17.1635 201.391 17.1635C210.665 17.1635 217.982 21.39 217.982 31.1048C217.982 40.3149 211.043 46.0554 199.94 46.0554H187.955V45.8031C188.27 44.1629 188.27 43.4059 188.27 39.4317V8.52115C188.27 4.54694 188.27 3.78995 187.955 2.14979V1.89746Z" fill="#080808"/>
<path d="M181.641 46.0549H175.459V45.8026C175.459 45.4241 175.585 44.7302 173.819 39.4312L162.149 4.79881L149.343 39.4312C147.387 44.6671 147.64 45.4241 147.64 45.8026V46.0549H144.423V45.8026C144.612 45.4241 145.117 44.7302 147.135 39.3682L161.14 1.897C162.654 1.897 164.483 1.58159 165.997 0.572266L179.181 39.4312C180.948 44.7302 181.452 45.4241 181.641 45.8026V46.0549Z" fill="#080808"/>
<path d="M123.945 1.897C125.459 1.897 127.289 1.58159 128.803 0.572266L142.555 39.4312C144.447 44.7302 144.889 45.4241 145.078 45.8026V46.0549H138.833V45.8026C138.833 45.4241 139.022 44.7302 137.193 39.4312L135.426 34.4477H113.41L111.518 39.3682C109.499 44.6671 109.815 45.4241 109.815 45.8026V46.0549H106.598V45.8026C106.787 45.4241 107.228 44.6671 109.31 39.4312L123.945 1.897ZM114.167 32.5552H134.796L125.018 4.60956L114.167 32.5552Z" fill="#080808"/>
<path d="M77.264 1.89746H106.219V4.23152H105.967C104.327 3.78995 103.57 3.78995 100.226 3.78995H94.4225V39.4317C94.4225 43.2167 94.4856 44.0998 94.6749 45.3615L94.738 45.8031V46.0554H88.7451V45.8031L88.8082 45.3615C88.9974 44.0998 89.0605 43.2167 89.0605 39.4317V3.78995H83.2569C79.9135 3.78995 79.1565 3.78995 77.5164 4.23152H77.264V1.89746Z" fill="#080808"/>
<path d="M54.579 1.897C56.0929 1.897 57.9223 1.58159 59.4363 0.572266L73.1884 39.4312C75.0809 44.7302 75.5224 45.4241 75.7117 45.8026V46.0549H69.4665V45.8026C69.4665 45.4241 69.6557 44.7302 67.8263 39.4312L66.06 34.4477H44.0441L42.1517 39.3682C40.133 44.6671 40.4484 45.4241 40.4484 45.8026V46.0549H37.2312V45.8026C37.4204 45.4241 37.862 44.6671 39.9438 39.4312L54.579 1.897ZM44.8011 32.5552H65.4292L55.6514 4.60956L44.8011 32.5552Z" fill="#080808"/>
<path d="M26.0532 1.89746H32.1722V2.14979C31.8568 3.78995 31.8568 4.54694 31.8568 8.52115V39.4317C31.8568 43.4059 31.8568 44.1629 32.1722 45.8031V46.0554H26.0532V45.8031C26.4948 44.1629 26.4948 43.4059 26.4948 39.4317V17.2266H5.67745V39.4317C5.67745 43.4059 5.67745 44.1629 6.11903 45.8031V46.0554H0V45.8031C0.315414 44.1629 0.315413 43.4059 0.315413 39.4317V8.52115C0.315413 4.54694 0.315414 3.78995 0 2.14979V1.89746H6.11903V2.14979C5.67745 3.78995 5.67745 4.54694 5.67745 8.52115V15.3341H26.4948V8.52115C26.4948 4.54694 26.4948 3.78995 26.0532 2.14979V1.89746Z" fill="#080808"/>
<path d="M299.484 92.5009C301.061 91.9963 303.774 89.5991 308.316 82.66L317.211 69.1603C308.631 68.6557 303.774 65.123 303.774 59.2563C303.774 52.9481 309.767 49.1631 320.302 49.1631H335V49.4154C334.685 51.0556 334.685 51.8126 334.685 55.7868V86.6973C334.685 90.6715 334.685 91.4285 335 93.0687V93.321H328.881V93.0687C329.323 91.4285 329.323 90.6715 329.323 86.6973V51.0556H322.131C313.867 51.0556 309.262 54.0835 309.262 59.5717C309.262 64.8076 313.867 67.7094 322.068 67.7094H323.393L323.834 68.5295L312.479 85.5618C309.388 90.23 305.603 94.5827 299.547 93.4472L299.484 92.5009Z" fill="#080808"/>
<path d="M277.367 49.1636C278.881 49.1636 280.71 48.8482 282.224 47.8389L295.976 86.6978C297.869 91.9968 298.31 92.6907 298.5 93.0692V93.3215H292.254V93.0692C292.254 92.6907 292.444 91.9968 290.614 86.6978L288.848 81.7143H266.832L264.94 86.6348C262.921 91.9337 263.236 92.6907 263.236 93.0692V93.3215H260.019V93.0692C260.208 92.6907 260.65 91.9337 262.732 86.6978L277.367 49.1636ZM267.589 79.8218H288.217L278.439 51.8762L267.589 79.8218Z" fill="#080808"/>
<path d="M227.285 49.1631H233.404V49.4154C232.963 51.0556 232.963 51.8126 232.963 55.7868V68.5295L246.588 55.7868C250.563 52.128 252.077 50.4878 252.581 49.4154L252.708 49.1631H256.303V49.3523C254.6 50.5509 253.086 52.0649 249.175 55.7868L242.677 61.9689L254.6 82.2185C258.7 89.2206 261.35 91.8701 262.864 92.5009L262.801 93.4472C256.682 94.2042 253.086 89.5991 250.31 84.8679L238.766 65.5015L232.963 70.9266V86.6973C232.963 90.6715 232.963 91.4285 233.404 93.0687V93.321H227.285V93.0687C227.601 91.4285 227.601 90.6715 227.601 86.6973V55.7868C227.601 51.8126 227.601 51.0556 227.285 49.4154V49.1631Z" fill="#080808"/>
<path d="M218.166 54.9039V61.1491H217.03C215.264 53.5792 208.64 49.5419 201.764 49.5419C192.68 49.5419 183.029 56.4179 183.029 70.99C183.029 86.0037 192.176 92.4382 201.07 92.4382C208.262 92.4382 215.201 88.2116 217.03 80.831H218.166V87.0761C213.939 91.3027 207.694 94.3307 200.566 94.3307C187.571 94.3307 177.351 83.9851 177.351 70.99C177.351 57.995 187.571 47.6494 200.566 47.6494C207.694 47.6494 213.939 50.6774 218.166 54.9039Z" fill="#080808"/>
<path d="M163.334 49.1631H169.453V49.4154C169.138 51.0556 169.138 51.8126 169.138 55.7868V86.6973C169.138 90.6715 169.138 91.4285 169.453 93.0687V93.321H163.334V93.0687C163.776 91.4285 163.776 90.6715 163.776 86.6973V64.4922H142.959V86.6973C142.959 90.6715 142.959 91.4285 143.4 93.0687V93.321H137.281V93.0687C137.597 91.4285 137.597 90.6715 137.597 86.6973V55.7868C137.597 51.8126 137.597 51.0556 137.281 49.4154V49.1631H143.4V49.4154C142.959 51.0556 142.959 51.8126 142.959 55.7868V62.5997H163.776V55.7868C163.776 51.8126 163.776 51.0556 163.334 49.4154V49.1631Z" fill="#080808"/>
<path d="M109.865 49.1636C111.379 49.1636 113.208 48.8482 114.722 47.8389L128.475 86.6978C130.367 91.9968 130.809 92.6907 130.998 93.0692V93.3215H124.753V93.0692C124.753 92.6907 124.942 91.9968 123.112 86.6978L121.346 81.7143H99.3303L97.4378 86.6348C95.4191 91.9337 95.7346 92.6907 95.7346 93.0692V93.3215H92.5173V93.0692C92.7066 92.6907 93.1482 91.9337 95.2299 86.6978L109.865 49.1636ZM100.087 79.8218H120.715L110.938 51.8762L100.087 79.8218Z" fill="#080808"/>
<path d="M46.4767 49.1631H47.6753L67.5463 81.083L86.2819 49.1631H87.4805C87.2281 50.8032 87.1651 51.7495 87.1651 55.156V86.6973C87.1651 90.6715 87.1651 91.4285 87.4805 93.0687V93.321H81.3614V93.0687C81.803 91.4285 81.803 90.6715 81.803 86.6973V60.5811L66.2216 87.0758H64.9599L48.6846 60.9596V86.6973C48.6846 90.6715 48.6846 91.4285 49.1262 93.0687V93.321H46.4767V93.0687C46.7921 91.4285 46.7921 90.6715 46.7921 86.6973V55.156C46.7921 51.7495 46.729 50.8032 46.4767 49.1631Z" fill="#080808"/>
<path d="M0 49.1631H7.19144V49.2893C7.50685 50.4247 9.08392 52.2541 11.1656 55.219L25.0439 74.9009L37.0296 55.219C38.859 52.2541 40.1837 50.4247 40.373 49.2893V49.1631H43.1486V49.4154C42.0131 50.614 41.13 52.128 39.3006 55.1559L22.3944 82.8493C17.4108 90.987 13.9413 94.2673 9.27317 94.2673C3.97421 94.2673 0.252331 90.7346 0.252331 85.7511C0.252331 80.7675 4.28963 77.6134 8.57926 77.6134C10.7241 77.6134 12.995 78.4335 14.8244 80.0736L14.3198 80.9568C13.3105 80.2629 12.1119 79.9475 10.9764 79.9475C8.20076 79.9475 5.8667 81.5876 5.8667 84.931C5.8667 87.959 8.13768 90.1038 11.418 90.1038C13.6259 90.1038 16.8431 88.4006 19.6818 83.7324L22.2051 79.6321L4.47888 55.1559C2.27098 52.128 1.26166 50.614 0 49.4154V49.1631Z" fill="#080808"/>
</svg>
