<svg width="1239" height="94" viewBox="0 0 1239 94" fill="none" xmlns="http://www.w3.org/2000/svg">
<path d="M435.703 90.2179C438.827 89.2181 444.201 84.469 453.2 70.7217L470.821 43.977C453.824 42.9772 444.201 35.9786 444.201 24.3559C444.201 11.8584 456.074 4.35986 476.945 4.35986H506.064V4.85976C505.439 8.10912 505.439 9.60882 505.439 17.4823V78.7201C505.439 86.5936 505.439 88.0933 506.064 91.3426V91.8425H493.941V91.3426C494.816 88.0933 494.816 86.5936 494.816 78.7201V8.10912H480.569C464.197 8.10912 455.074 14.1079 455.074 24.9808C455.074 35.3537 464.197 41.1026 480.444 41.1026H483.069L483.943 42.7273L461.448 76.4706C455.324 85.7188 447.826 94.342 435.828 92.0925L435.703 90.2179Z" fill="#080808"/>
<path d="M372.363 4.35986H384.486V4.85976C383.611 8.10912 383.611 9.60882 383.611 17.4823V88.0933H394.859C410.48 88.0933 420.353 78.4702 420.353 63.2232C420.353 47.4763 409.981 38.6031 394.609 38.6031C393.609 38.6031 392.734 38.6031 391.734 38.7281V34.9788C394.234 34.7289 396.608 34.6039 398.983 34.6039C417.354 34.6039 431.851 42.9772 431.851 62.2234C431.851 80.4698 418.104 91.8425 396.108 91.8425H372.363V91.3426C372.988 88.0933 372.988 86.5936 372.988 78.7201V17.4823C372.988 9.60882 372.988 8.10912 372.363 4.85976V4.35986Z" fill="#080808"/>
<path d="M359.856 91.8425H347.608V91.3426C347.608 90.5928 347.858 89.218 344.359 78.7201L321.238 10.1087L295.868 78.7201C291.994 89.093 292.494 90.5928 292.494 91.3426V91.8425H286.12V91.3426C286.495 90.5928 287.495 89.218 291.494 78.5951L319.239 4.35983C322.238 4.35983 325.862 3.73495 328.862 1.73535L354.982 78.7201C358.481 89.218 359.481 90.5928 359.856 91.3426V91.8425Z" fill="#080808"/>
<path d="M245.552 4.35983C248.551 4.35983 252.176 3.73495 255.175 1.73535L282.42 78.7201C286.169 89.218 287.044 90.5928 287.419 91.3426V91.8425H275.046V91.3426C275.046 90.5928 275.421 89.218 271.797 78.7201L268.297 68.8471H224.681L220.932 78.5951C216.933 89.093 217.557 90.5928 217.557 91.3426V91.8425H211.184V91.3426C211.559 90.5928 212.433 89.093 216.558 78.7201L245.552 4.35983ZM226.181 65.0978H267.048L247.676 9.73377L226.181 65.0978Z" fill="#080808"/>
<path d="M153.07 4.35986H210.434V8.98395H209.934C206.685 8.10913 205.185 8.10912 198.561 8.10912H187.064V78.7201C187.064 86.2187 187.189 87.9683 187.563 90.4678L187.688 91.3426V91.8425H175.816V91.3426L175.941 90.4678C176.316 87.9683 176.441 86.2187 176.441 78.7201V8.10912H164.943C158.319 8.10912 156.82 8.10913 153.57 8.98395H153.07V4.35986Z" fill="#080808"/>
<path d="M108.128 4.35983C111.127 4.35983 114.752 3.73495 117.751 1.73535L144.996 78.7201C148.745 89.218 149.62 90.5928 149.995 91.3426V91.8425H137.622V91.3426C137.622 90.5928 137.997 89.218 134.373 78.7201L130.874 68.8471H87.2571L83.5079 78.5951C79.5087 89.093 80.1335 90.5928 80.1335 91.3426V91.8425H73.7598V91.3426C74.1347 90.5928 75.0096 89.093 79.1338 78.7201L108.128 4.35983ZM88.7568 65.0978H129.624L110.253 9.73377L88.7568 65.0978Z" fill="#080808"/>
<path d="M51.6148 4.35986H63.7374V4.85976C63.1125 8.10912 63.1125 9.60882 63.1125 17.4823V78.7201C63.1125 86.5936 63.1125 88.0933 63.7374 91.3426V91.8425H51.6148V91.3426C52.4896 88.0933 52.4896 86.5936 52.4896 78.7201V34.7288H11.2478V78.7201C11.2478 86.5936 11.2478 88.0933 12.1226 91.3426V91.8425H0V91.3426C0.624876 88.0933 0.624875 86.5936 0.624875 78.7201V17.4823C0.624875 9.60882 0.624876 8.10912 0 4.85976V4.35986H12.1226V4.85976C11.2478 8.10912 11.2478 9.60882 11.2478 17.4823V30.9796H52.4896V17.4823C52.4896 9.60882 52.4896 8.10912 51.6148 4.85976V4.35986Z" fill="#080808"/>
<path d="M1168.64 89.6104C1171.76 88.6106 1177.14 83.8616 1186.14 70.1143L1203.76 43.3696C1186.76 42.3698 1177.14 35.3712 1177.14 23.7485C1177.14 11.251 1189.01 3.75244 1209.88 3.75244H1239V4.25234C1238.38 7.5017 1238.38 9.0014 1238.38 16.8748V78.1127C1238.38 85.9862 1238.38 87.4859 1239 90.7352V91.2351H1226.88V90.7352C1227.75 87.4859 1227.75 85.9862 1227.75 78.1127V7.5017H1213.51C1197.13 7.5017 1188.01 13.5005 1188.01 24.3734C1188.01 34.7463 1197.13 40.4952 1213.38 40.4952H1216L1216.88 42.1198L1194.38 75.8632C1188.26 85.1113 1180.76 93.7346 1168.76 91.4851L1168.64 89.6104Z" fill="#080808"/>
<path d="M1124.82 3.75241C1127.82 3.75241 1131.45 3.12753 1134.44 1.12793L1161.69 78.1127C1165.44 88.6106 1166.31 89.9853 1166.69 90.7352V91.2351H1154.32V90.7352C1154.32 89.9853 1154.69 88.6106 1151.07 78.1127L1147.57 68.2396H1103.95L1100.2 77.9877C1096.2 88.4856 1096.83 89.9853 1096.83 90.7352V91.2351H1090.45V90.7352C1090.83 89.9853 1091.7 88.4856 1095.83 78.1127L1124.82 3.75241ZM1105.45 64.4904H1146.32L1126.95 9.12635L1105.45 64.4904Z" fill="#080808"/>
<path d="M1025.6 3.75244H1037.73V4.25234C1036.85 7.5017 1036.85 9.0014 1036.85 16.8748V42.1198L1063.85 16.8748C1071.72 9.62628 1074.72 6.37692 1075.72 4.25234L1075.97 3.75244H1083.09V4.12737C1079.72 6.5019 1076.72 9.5013 1068.97 16.8748L1056.1 29.1224L1079.72 69.2395C1087.84 83.1117 1093.09 88.3607 1096.09 89.6104L1095.96 91.4851C1083.84 92.9848 1076.72 83.8616 1071.22 74.4884L1048.35 36.121L1036.85 46.8689V78.1127C1036.85 85.9862 1036.85 87.4859 1037.73 90.7352V91.2351H1025.6V90.7352C1026.23 87.4859 1026.23 85.9862 1026.23 78.1127V16.8748C1026.23 9.0014 1026.23 7.5017 1025.6 4.25234V3.75244Z" fill="#080808"/>
<path d="M1007.54 15.1251V27.4976H1005.29C1001.79 12.5006 988.665 4.50219 975.042 4.50219C957.046 4.50219 937.925 18.1245 937.925 46.9938C937.925 76.7379 956.046 89.4854 973.668 89.4854C987.915 89.4854 1001.66 81.112 1005.29 66.4899H1007.54V78.8625C999.163 87.2358 986.79 93.2346 972.668 93.2346C946.923 93.2346 926.677 72.7387 926.677 46.9938C926.677 21.2489 946.923 0.75293 972.668 0.75293C986.79 0.75293 999.163 6.75174 1007.54 15.1251Z" fill="#080808"/>
<path d="M898.908 3.75244H911.031V4.25234C910.406 7.5017 910.406 9.0014 910.406 16.8748V78.1127C910.406 85.9862 910.406 87.4859 911.031 90.7352V91.2351H898.908V90.7352C899.783 87.4859 899.783 85.9862 899.783 78.1127V34.1214H858.541V78.1127C858.541 85.9862 858.541 87.4859 859.416 90.7352V91.2351H847.293V90.7352C847.918 87.4859 847.918 85.9862 847.918 78.1127V16.8748C847.918 9.0014 847.918 7.5017 847.293 4.25234V3.75244H859.416V4.25234C858.541 7.5017 858.541 9.0014 858.541 16.8748V30.3722H899.783V16.8748C899.783 9.0014 899.783 7.5017 898.908 4.25234V3.75244Z" fill="#080808"/>
<path d="M792.978 3.75241C795.978 3.75241 799.602 3.12753 802.601 1.12793L829.846 78.1127C833.595 88.6106 834.47 89.9853 834.845 90.7352V91.2351H822.472V90.7352C822.472 89.9853 822.847 88.6106 819.223 78.1127L815.724 68.2396H772.107L768.358 77.9877C764.359 88.4856 764.984 89.9853 764.984 90.7352V91.2351H758.61V90.7352C758.985 89.9853 759.86 88.4856 763.984 78.1127L792.978 3.75241ZM773.607 64.4904H814.474L795.103 9.12635L773.607 64.4904Z" fill="#080808"/>
<path d="M667.397 3.75244H669.772L709.139 66.9899L746.257 3.75244H748.631C748.131 7.0018 748.006 8.87643 748.006 15.6251V78.1127C748.006 85.9862 748.006 87.4859 748.631 90.7352V91.2351H736.509V90.7352C737.384 87.4859 737.384 85.9862 737.384 78.1127V26.373L706.515 78.8626H704.015L671.772 27.1228V78.1127C671.772 85.9862 671.772 87.4859 672.646 90.7352V91.2351H667.397V90.7352C668.022 87.4859 668.022 85.9862 668.022 78.1127V15.6251C668.022 8.87643 667.897 7.0018 667.397 3.75244Z" fill="#080808"/>
<path d="M575.321 3.75244H589.568V4.0024C590.193 6.25195 593.317 9.87623 597.442 15.7501L624.936 54.7423L648.681 15.7501C652.306 9.87623 654.93 6.25195 655.305 4.0024V3.75244H660.804V4.25234C658.554 6.62687 656.805 9.62628 653.181 15.6251L619.687 70.4892C609.814 86.611 602.94 93.1097 593.692 93.1097C583.194 93.1097 575.821 86.1111 575.821 76.2381C575.821 66.365 583.819 60.1163 592.318 60.1163C596.567 60.1163 601.066 61.741 604.69 64.9903L603.69 66.74C601.691 65.3652 599.316 64.7404 597.067 64.7404C591.568 64.7404 586.944 67.9897 586.944 74.6134C586.944 80.6122 591.443 84.8614 597.941 84.8614C602.316 84.8614 608.689 81.487 614.313 72.2389L619.312 64.1155L584.194 15.6251C579.82 9.62628 577.82 6.62687 575.321 4.25234V3.75244Z" fill="#080808"/>
</svg>
