<svg width="121" height="36" viewBox="0 0 121 36" fill="none" xmlns="http://www.w3.org/2000/svg">
<path d="M79.4363 16.1318C80.0059 15.9496 80.9857 15.0837 82.6262 12.5774L85.8389 7.70135C82.7401 7.51907 80.9857 6.24311 80.9857 4.12409C80.9857 1.84558 83.1502 0.47847 86.9554 0.47847H92.2643V0.569611C92.1504 1.16202 92.1504 1.43544 92.1504 2.87091V14.0356C92.1504 15.4711 92.1504 15.7445 92.2643 16.3369V16.4281H90.0541V16.3369C90.2136 15.7445 90.2136 15.4711 90.2136 14.0356V1.16202H87.6161C84.6313 1.16202 82.968 2.25571 82.968 4.23801C82.968 6.12918 84.6313 7.1773 87.5933 7.1773H88.0718L88.2313 7.4735L84.13 13.6255C83.0135 15.3116 81.6464 16.8838 79.4591 16.4736L79.4363 16.1318Z" fill="#080808"/>
<path d="M67.8882 0.47847H70.0983V0.569611C69.9388 1.16202 69.9388 1.43544 69.9388 2.87091V15.7445H71.9895C74.8376 15.7445 76.6377 13.99 76.6377 11.2103C76.6377 8.33934 74.7465 6.72159 71.9439 6.72159C71.7617 6.72159 71.6022 6.72159 71.4199 6.74438V6.06083C71.8756 6.01525 72.3085 5.99247 72.7414 5.99247C76.0908 5.99247 78.7339 7.51907 78.7339 11.028C78.7339 14.3546 76.2275 16.4281 72.2174 16.4281H67.8882V16.3369C68.0021 15.7445 68.0021 15.4711 68.0021 14.0356V2.87091C68.0021 1.43544 68.0021 1.16202 67.8882 0.569611V0.47847Z" fill="#080808"/>
<path d="M65.6078 16.4281H63.3748V16.3369C63.3748 16.2002 63.4204 15.9496 62.7824 14.0356L58.5672 1.5266L53.9418 14.0356C53.2355 15.9268 53.3266 16.2002 53.3266 16.3369V16.4281H52.1646V16.3369C52.2329 16.2002 52.4152 15.9496 53.1443 14.0128L58.2026 0.478487C58.7494 0.478487 59.4102 0.364561 59.9571 0L64.7192 14.0356C65.3571 15.9496 65.5394 16.2002 65.6078 16.3369V16.4281Z" fill="#080808"/>
<path d="M44.7683 0.478487C45.3152 0.478487 45.976 0.364561 46.5228 0L51.49 14.0356C52.1735 15.9496 52.333 16.2002 52.4014 16.3369V16.4281H50.1456V16.3369C50.1456 16.2002 50.214 15.9496 49.5532 14.0356L48.9152 12.2356H40.9632L40.2797 14.0128C39.5506 15.9268 39.6645 16.2002 39.6645 16.3369V16.4281H38.5024V16.3369C38.5708 16.2002 38.7303 15.9268 39.4822 14.0356L44.7683 0.478487ZM41.2367 11.5521H48.6874L45.1557 1.45825L41.2367 11.5521Z" fill="#080808"/>
<path d="M27.9075 0.47847H38.3658V1.32152H38.2747C37.6823 1.16202 37.4089 1.16202 36.2013 1.16202H34.105V14.0356C34.105 15.4027 34.1278 15.7217 34.1962 16.1774L34.2189 16.3369V16.4281H32.0544V16.3369L32.0771 16.1774C32.1455 15.7217 32.1683 15.4027 32.1683 14.0356V1.16202H30.0721C28.8644 1.16202 28.591 1.16202 27.9986 1.32152H27.9075V0.47847Z" fill="#080808"/>
<path d="M19.7137 0.478487C20.2605 0.478487 20.9213 0.364561 21.4681 0L26.4353 14.0356C27.1188 15.9496 27.2783 16.2002 27.3467 16.3369V16.4281H25.091V16.3369C25.091 16.2002 25.1593 15.9496 24.4985 14.0356L23.8606 12.2356H15.9085L15.225 14.0128C14.4959 15.9268 14.6098 16.2002 14.6098 16.3369V16.4281H13.4478V16.3369C13.5161 16.2002 13.6756 15.9268 14.4275 14.0356L19.7137 0.478487ZM16.182 11.5521H23.6327L20.101 1.45825L16.182 11.5521Z" fill="#080808"/>
<path d="M9.41026 0.47847H11.6204V0.569611C11.5065 1.16202 11.5065 1.43544 11.5065 2.87091V14.0356C11.5065 15.4711 11.5065 15.7445 11.6204 16.3369V16.4281H9.41026V16.3369C9.56975 15.7445 9.56975 15.4711 9.56975 14.0356V6.01525H2.05066V14.0356C2.05066 15.4711 2.05066 15.7445 2.21016 16.3369V16.4281H0V16.3369C0.113925 15.7445 0.113926 15.4711 0.113926 14.0356V2.87091C0.113926 1.43544 0.113925 1.16202 0 0.569611V0.47847H2.21016V0.569611C2.05066 1.16202 2.05066 1.43544 2.05066 2.87091V5.3317H9.56975V2.87091C9.56975 1.43544 9.56975 1.16202 9.41026 0.569611V0.47847Z" fill="#080808"/>
<path d="M108.172 34.4866C108.742 34.3043 109.721 33.4385 111.362 30.9321L114.574 26.0561C111.476 25.8738 109.721 24.5978 109.721 22.4788C109.721 20.2003 111.886 18.8332 115.691 18.8332H121V18.9243C120.886 19.5168 120.886 19.7902 120.886 21.2256V32.3904C120.886 33.8258 120.886 34.0992 121 34.6917V34.7828H118.79V34.6917C118.949 34.0992 118.949 33.8258 118.949 32.3904V19.5168H116.352C113.367 19.5168 111.704 20.6104 111.704 22.5928C111.704 24.4839 113.367 25.532 116.329 25.532H116.807L116.967 25.8282L112.866 31.9802C111.749 33.6663 110.382 35.2385 108.195 34.8284L108.172 34.4866Z" fill="#080808"/>
<path d="M100.183 18.8332C100.73 18.8332 101.391 18.7193 101.938 18.3547L106.905 32.3903C107.588 34.3043 107.748 34.5549 107.816 34.6916V34.7828H105.56V34.6916C105.56 34.5549 105.629 34.3043 104.968 32.3903L104.33 30.5903H96.378L95.6945 32.3676C94.9654 34.2815 95.0793 34.5549 95.0793 34.6916V34.7828H93.9172V34.6916C93.9856 34.5549 94.1451 34.2815 94.897 32.3903L100.183 18.8332ZM96.6515 29.9068H104.102L100.57 19.813L96.6515 29.9068Z" fill="#080808"/>
<path d="M82.0942 18.8332H84.3044V18.9243C84.1449 19.5168 84.1449 19.7902 84.1449 21.2256V25.8282L89.0665 21.2256C90.502 19.9041 91.0488 19.3117 91.2311 18.9243L91.2766 18.8332H92.5754V18.9016C91.9602 19.3345 91.4134 19.8813 90.0007 21.2256L87.6538 23.4586L91.9602 30.7726C93.4412 33.3018 94.3982 34.2587 94.9451 34.4866L94.9223 34.8284C92.7121 35.1018 91.4134 33.4385 90.4108 31.7296L86.2411 24.7346L84.1449 26.6941V32.3904C84.1449 33.8258 84.1449 34.0992 84.3044 34.6917V34.7828H82.0942V34.6917C82.2082 34.0992 82.2082 33.8258 82.2082 32.3904V21.2256C82.2082 19.7902 82.2082 19.5168 82.0942 18.9243V18.8332Z" fill="#080808"/>
<path d="M78.8003 20.9067V23.1624H78.3902C77.7522 20.4282 75.3598 18.9699 72.8762 18.9699C69.5951 18.9699 66.109 21.4535 66.109 26.7169C66.109 32.1397 69.4129 34.4638 72.6256 34.4638C75.2231 34.4638 77.7294 32.9372 78.3902 30.2713H78.8003V32.5271C77.2737 34.0537 75.018 35.1474 72.4433 35.1474C67.7495 35.1474 64.0583 31.4106 64.0583 26.7169C64.0583 22.0231 67.7495 18.2864 72.4433 18.2864C75.018 18.2864 77.2737 19.38 78.8003 20.9067Z" fill="#080808"/>
<path d="M58.9952 18.8332H61.2054V18.9243C61.0914 19.5168 61.0914 19.7902 61.0914 21.2256V32.3904C61.0914 33.8258 61.0914 34.0992 61.2054 34.6917V34.7828H58.9952V34.6917C59.1547 34.0992 59.1547 33.8258 59.1547 32.3904V24.37H51.6356V32.3904C51.6356 33.8258 51.6356 34.0992 51.7951 34.6917V34.7828H49.585V34.6917C49.6989 34.0992 49.6989 33.8258 49.6989 32.3904V21.2256C49.6989 19.7902 49.6989 19.5168 49.585 18.9243V18.8332H51.7951V18.9243C51.6356 19.5168 51.6356 19.7902 51.6356 21.2256V23.6864H59.1547V21.2256C59.1547 19.7902 59.1547 19.5168 58.9952 18.9243V18.8332Z" fill="#080808"/>
<path d="M39.6827 18.8332C40.2295 18.8332 40.8903 18.7193 41.4371 18.3547L46.4043 32.3903C47.0878 34.3043 47.2473 34.5549 47.3157 34.6916V34.7828H45.0599V34.6916C45.0599 34.5549 45.1283 34.3043 44.4675 32.3903L43.8296 30.5903H35.8775L35.194 32.3676C34.4649 34.2815 34.5788 34.5549 34.5788 34.6916V34.7828H33.4167V34.6916C33.4851 34.5549 33.6446 34.2815 34.3965 32.3903L39.6827 18.8332ZM36.151 29.9068H43.6017L40.07 19.813L36.151 29.9068Z" fill="#080808"/>
<path d="M16.7871 18.8332H17.22L24.3973 30.3625L31.1645 18.8332H31.5974C31.5063 19.4256 31.4835 19.7674 31.4835 20.9978V32.3904C31.4835 33.8258 31.4835 34.0992 31.5974 34.6917V34.7828H29.3873V34.6917C29.5468 34.0992 29.5468 33.8258 29.5468 32.3904V22.9573L23.9189 32.5271H23.4631L17.5846 23.094V32.3904C17.5846 33.8258 17.5846 34.0992 17.7441 34.6917V34.7828H16.7871V34.6917C16.901 34.0992 16.901 33.8258 16.901 32.3904V20.9978C16.901 19.7674 16.8782 19.4256 16.7871 18.8332Z" fill="#080808"/>
<path d="M0 18.8332H2.5975V18.8788C2.71143 19.2889 3.28106 19.9497 4.03297 21.0206L9.04569 28.1295L13.3749 21.0206C14.0356 19.9497 14.5141 19.2889 14.5825 18.8788V18.8332H15.585V18.9243C15.1749 19.3573 14.8559 19.9041 14.1951 20.9978L8.08872 31.0005C6.28869 33.9397 5.03551 35.1246 3.34941 35.1246C1.43546 35.1246 0.0911405 33.8486 0.0911405 32.0486C0.0911405 30.2486 1.54939 29.1093 3.09878 29.1093C3.87347 29.1093 4.69373 29.4055 5.3545 29.9979L5.17222 30.3169C4.80766 30.0663 4.37474 29.9523 3.96461 29.9523C2.96207 29.9523 2.11902 30.5448 2.11902 31.7524C2.11902 32.8461 2.93928 33.6207 4.12411 33.6207C4.92159 33.6207 6.08363 33.0056 7.10896 31.3195L8.02036 29.8384L1.61774 20.9978C0.820264 19.9041 0.455702 19.3573 0 18.9243V18.8332Z" fill="#080808"/>
</svg>
